<svg width="390" height="200" viewBox="0 0 390 200" fill="none" xmlns="http://www.w3.org/2000/svg">
<mask id="mask0_193_119" style="mask-type:alpha" maskUnits="userSpaceOnUse" x="0" y="0" width="390" height="200">
<path d="M390 70H340L350 100H390V200H0L110 0H390V70Z" fill="black"/>
</mask>
<g mask="url(#mask0_193_119)">
<path d="M190 100C190 50 230 0 290 0C350 0 390.014 49.5 390 100L350 100C350 70 325.231 40 290 40C254.769 40 230 70 230 100H190Z" fill="black"/>
<path d="M293 100C293 40 243 0.000213623 193 0V40C223 40 253 64.7691 253 100C253 135.231 223 160 193 160H187.5V200H193C243.5 200.014 293 160 293 100Z" fill="black"/>
<path d="M190 100C190 150 230 200 290 200C350 200 390.014 150.5 390 100H350C350 130 325.231 160 290 160C254.769 160 230 130 230 100C230 82.7733 238.408 65.5465 251.911 54L225.982 23C203.342 42.245 190 71.1225 190 100Z" fill="black"/>
<path d="M193 0C243 0.000213623 293 40 293 100H253C253 64.7691 223 40 193 40V0Z" fill="black"/>
<path d="M293 100C293 40 243 0.000228882 193 1.52588e-05V40C223 40 253 64.7691 253 100V114.5H292L293 100Z" fill="black"/>
<path d="M310 131V100H350V131H310Z" fill="black"/>
<path d="M0 200L110 0H150L193 -6.10352e-05V40H150V200H110V70L40 200H0Z" fill="black"/>
</g>
</svg>
