<svg width="512" height="512" viewBox="0 0 512 512" fill="none" xmlns="http://www.w3.org/2000/svg">
<rect width="512" height="512" rx="100" fill="#F5F5F5"/>
<mask id="mask0_192_2" style="mask-type:alpha" maskUnits="userSpaceOnUse" x="56" y="156" width="390" height="200">
<path d="M446 226H396L406 256H446V356H56L166 156H446V226Z" fill="black"/>
</mask>
<g mask="url(#mask0_192_2)">
<path d="M246 256C246 206 286 156 346 156C406 156 446.014 205.5 446 256L406 256C406 226 381.231 196 346 196C310.769 196 286 226 286 256H246Z" fill="black"/>
<path d="M349 256C349 196 299 156 249 156V196C279 196 309 220.769 309 256C309 291.231 279 316 249 316H243.5V356H249C299.5 356.014 349 316 349 256Z" fill="black"/>
<g filter="url(#filter0_d_192_2)">
<path d="M246 256C246 306 286 356 346 356C406 356 446.014 306.5 446 256H406C406 286 381.231 316 346 316C310.769 316 286 286 286 256C286 238.773 294.408 221.547 307.911 210L281.982 179C259.342 198.245 246 227.122 246 256Z" fill="black"/>
</g>
<g filter="url(#filter1_d_192_2)">
<path d="M249 156C299 156 349 196 349 256H309C309 220.769 279 196 249 196V156Z" fill="black"/>
</g>
<path d="M349 256C349 196 299 156 249 156V196C279 196 309 220.769 309 256V270.5H348L349 256Z" fill="black"/>
<path d="M366 287V256H406V287H366Z" fill="black"/>
<path d="M56 356L166 156H206L249 156V196H206V356H166V226L96 356H56Z" fill="black"/>
</g>
<defs>
<filter id="filter0_d_192_2" x="231" y="168" width="230" height="207" filterUnits="userSpaceOnUse" color-interpolation-filters="sRGB">
<feFlood flood-opacity="0" result="BackgroundImageFix"/>
<feColorMatrix in="SourceAlpha" type="matrix" values="0 0 0 0 0 0 0 0 0 0 0 0 0 0 0 0 0 0 127 0" result="hardAlpha"/>
<feOffset dy="4"/>
<feGaussianBlur stdDeviation="7.5"/>
<feComposite in2="hardAlpha" operator="out"/>
<feColorMatrix type="matrix" values="0 0 0 0 1 0 0 0 0 1 0 0 0 0 1 0 0 0 0.25 0"/>
<feBlend mode="normal" in2="BackgroundImageFix" result="effect1_dropShadow_192_2"/>
<feBlend mode="normal" in="SourceGraphic" in2="effect1_dropShadow_192_2" result="shape"/>
</filter>
<filter id="filter1_d_192_2" x="234" y="145" width="130" height="130" filterUnits="userSpaceOnUse" color-interpolation-filters="sRGB">
<feFlood flood-opacity="0" result="BackgroundImageFix"/>
<feColorMatrix in="SourceAlpha" type="matrix" values="0 0 0 0 0 0 0 0 0 0 0 0 0 0 0 0 0 0 127 0" result="hardAlpha"/>
<feOffset dy="4"/>
<feGaussianBlur stdDeviation="7.5"/>
<feComposite in2="hardAlpha" operator="out"/>
<feColorMatrix type="matrix" values="0 0 0 0 1 0 0 0 0 1 0 0 0 0 1 0 0 0 0.25 0"/>
<feBlend mode="normal" in2="BackgroundImageFix" result="effect1_dropShadow_192_2"/>
<feBlend mode="normal" in="SourceGraphic" in2="effect1_dropShadow_192_2" result="shape"/>
</filter>
</defs>
</svg>
