<svg width="512" height="512" viewBox="0 0 512 512" fill="none" xmlns="http://www.w3.org/2000/svg">
<g clip-path="url(#clip0_104_4)">
<rect width="512" height="512" rx="100" fill="#F5F5F5"/>
<path d="M107.31 274.128H73.7735L68.3975 290H45.4855L77.9975 200.144H103.342L135.854 290H112.686L107.31 274.128ZM101.678 257.232L90.5415 224.336L79.5335 257.232H101.678ZM167.637 200.144V290H145.749V200.144H167.637Z" fill="#0E0E0E"/>
<path d="M191.225 259.344C192.249 257.68 193.721 256.336 195.641 255.312C197.561 254.288 199.758 253.776 202.233 253.776C205.177 253.776 207.843 254.523 210.233 256.016C212.622 257.509 214.499 259.643 215.865 262.416C217.273 265.189 217.977 268.411 217.977 272.08C217.977 275.749 217.273 278.992 215.865 281.808C214.499 284.581 212.622 286.736 210.233 288.272C207.843 289.765 205.177 290.512 202.233 290.512C199.715 290.512 197.518 290.021 195.641 289.04C193.763 288.016 192.291 286.672 191.225 285.008V290H180.281V242.64H191.225V259.344ZM206.841 272.08C206.841 269.349 206.073 267.216 204.537 265.68C203.043 264.101 201.187 263.312 198.969 263.312C196.793 263.312 194.937 264.101 193.401 265.68C191.907 267.259 191.161 269.413 191.161 272.144C191.161 274.875 191.907 277.029 193.401 278.608C194.937 280.187 196.793 280.976 198.969 280.976C201.145 280.976 203.001 280.187 204.537 278.608C206.073 276.987 206.841 274.811 206.841 272.08ZM234.662 242.64V290H223.718V242.64H234.662ZM258.849 290.512C255.35 290.512 252.193 289.765 249.377 288.272C246.604 286.779 244.406 284.645 242.785 281.872C241.206 279.099 240.417 275.856 240.417 272.144C240.417 268.475 241.228 265.253 242.849 262.48C244.47 259.664 246.689 257.509 249.505 256.016C252.321 254.523 255.478 253.776 258.977 253.776C262.476 253.776 265.633 254.523 268.449 256.016C271.265 257.509 273.484 259.664 275.105 262.48C276.726 265.253 277.537 268.475 277.537 272.144C277.537 275.813 276.705 279.056 275.041 281.872C273.42 284.645 271.18 286.779 268.321 288.272C265.505 289.765 262.348 290.512 258.849 290.512ZM258.849 281.04C260.94 281.04 262.71 280.272 264.161 278.736C265.654 277.2 266.401 275.003 266.401 272.144C266.401 269.285 265.676 267.088 264.225 265.552C262.817 264.016 261.068 263.248 258.977 263.248C256.844 263.248 255.073 264.016 253.665 265.552C252.257 267.045 251.553 269.243 251.553 272.144C251.553 275.003 252.236 277.2 253.601 278.736C255.009 280.272 256.758 281.04 258.849 281.04ZM296.911 253.776C299.428 253.776 301.626 254.288 303.503 255.312C305.423 256.336 306.895 257.68 307.919 259.344V254.288H318.863V289.936C318.863 293.221 318.202 296.187 316.879 298.832C315.599 301.52 313.615 303.653 310.927 305.232C308.282 306.811 304.975 307.6 301.007 307.6C295.716 307.6 291.428 306.341 288.143 303.824C284.858 301.349 282.98 297.979 282.511 293.712H293.327C293.668 295.077 294.479 296.144 295.759 296.912C297.039 297.723 298.618 298.128 300.495 298.128C302.756 298.128 304.548 297.467 305.871 296.144C307.236 294.864 307.919 292.795 307.919 289.936V284.88C306.852 286.544 305.38 287.909 303.503 288.976C301.626 290 299.428 290.512 296.911 290.512C293.967 290.512 291.3 289.765 288.911 288.272C286.522 286.736 284.623 284.581 283.215 281.808C281.85 278.992 281.167 275.749 281.167 272.08C281.167 268.411 281.85 265.189 283.215 262.416C284.623 259.643 286.522 257.509 288.911 256.016C291.3 254.523 293.967 253.776 296.911 253.776ZM307.919 272.144C307.919 269.413 307.151 267.259 305.615 265.68C304.122 264.101 302.287 263.312 300.111 263.312C297.935 263.312 296.079 264.101 294.543 265.68C293.05 267.216 292.303 269.349 292.303 272.08C292.303 274.811 293.05 276.987 294.543 278.608C296.079 280.187 297.935 280.976 300.111 280.976C302.287 280.976 304.122 280.187 305.615 278.608C307.151 277.029 307.919 274.875 307.919 272.144ZM337.725 259.344C338.791 257.68 340.263 256.336 342.141 255.312C344.018 254.288 346.215 253.776 348.733 253.776C351.677 253.776 354.343 254.523 356.733 256.016C359.122 257.509 360.999 259.643 362.365 262.416C363.773 265.189 364.477 268.411 364.477 272.08C364.477 275.749 363.773 278.992 362.365 281.808C360.999 284.581 359.122 286.736 356.733 288.272C354.343 289.765 351.677 290.512 348.733 290.512C346.258 290.512 344.061 290 342.141 288.976C340.263 287.952 338.791 286.629 337.725 285.008V307.024H326.781V254.288H337.725V259.344ZM353.341 272.08C353.341 269.349 352.573 267.216 351.037 265.68C349.543 264.101 347.687 263.312 345.469 263.312C343.293 263.312 341.437 264.101 339.901 265.68C338.407 267.259 337.661 269.413 337.661 272.144C337.661 274.875 338.407 277.029 339.901 278.608C341.437 280.187 343.293 280.976 345.469 280.976C347.645 280.976 349.501 280.187 351.037 278.608C352.573 276.987 353.341 274.811 353.341 272.08ZM386.474 290.512C382.975 290.512 379.818 289.765 377.002 288.272C374.229 286.779 372.031 284.645 370.41 281.872C368.831 279.099 368.042 275.856 368.042 272.144C368.042 268.475 368.853 265.253 370.474 262.48C372.095 259.664 374.314 257.509 377.13 256.016C379.946 254.523 383.103 253.776 386.602 253.776C390.101 253.776 393.258 254.523 396.074 256.016C398.89 257.509 401.109 259.664 402.73 262.48C404.351 265.253 405.162 268.475 405.162 272.144C405.162 275.813 404.33 279.056 402.666 281.872C401.045 284.645 398.805 286.779 395.946 288.272C393.13 289.765 389.973 290.512 386.474 290.512ZM386.474 281.04C388.565 281.04 390.335 280.272 391.786 278.736C393.279 277.2 394.026 275.003 394.026 272.144C394.026 269.285 393.301 267.088 391.85 265.552C390.442 264.016 388.693 263.248 386.602 263.248C384.469 263.248 382.698 264.016 381.29 265.552C379.882 267.045 379.178 269.243 379.178 272.144C379.178 275.003 379.861 277.2 381.226 278.736C382.634 280.272 384.383 281.04 386.474 281.04ZM425.496 290.512C422.381 290.512 419.608 289.979 417.176 288.912C414.744 287.845 412.824 286.395 411.416 284.56C410.008 282.683 409.219 280.592 409.048 278.288H419.864C419.992 279.525 420.568 280.528 421.592 281.296C422.616 282.064 423.875 282.448 425.368 282.448C426.733 282.448 427.779 282.192 428.504 281.68C429.272 281.125 429.656 280.421 429.656 279.568C429.656 278.544 429.123 277.797 428.056 277.328C426.989 276.816 425.261 276.261 422.872 275.664C420.312 275.067 418.179 274.448 416.472 273.808C414.765 273.125 413.293 272.08 412.056 270.672C410.819 269.221 410.2 267.28 410.2 264.848C410.2 262.8 410.755 260.944 411.864 259.28C413.016 257.573 414.68 256.229 416.856 255.248C419.075 254.267 421.699 253.776 424.728 253.776C429.208 253.776 432.728 254.885 435.288 257.104C437.891 259.323 439.384 262.267 439.768 265.936H429.656C429.485 264.699 428.931 263.717 427.992 262.992C427.096 262.267 425.901 261.904 424.408 261.904C423.128 261.904 422.147 262.16 421.464 262.672C420.781 263.141 420.44 263.803 420.44 264.656C420.44 265.68 420.973 266.448 422.04 266.96C423.149 267.472 424.856 267.984 427.16 268.496C429.805 269.179 431.96 269.861 433.624 270.544C435.288 271.184 436.739 272.251 437.976 273.744C439.256 275.195 439.917 277.157 439.96 279.632C439.96 281.723 439.363 283.6 438.168 285.264C437.016 286.885 435.331 288.165 433.112 289.104C430.936 290.043 428.397 290.512 425.496 290.512ZM466.56 280.72V290H460.992C457.024 290 453.93 289.04 451.712 287.12C449.493 285.157 448.384 281.979 448.384 277.584V263.376H444.032V254.288H448.384V245.584H459.328V254.288H466.496V263.376H459.328V277.712C459.328 278.779 459.584 279.547 460.096 280.016C460.608 280.485 461.461 280.72 462.656 280.72H466.56Z" fill="#FF0000"/>
</g>
<defs>
<clipPath id="clip0_104_4">
<rect width="512" height="512" fill="white"/>
</clipPath>
</defs>
</svg>
