<svg width="45" height="45" viewBox="0 0 45 45" fill="none" xmlns="http://www.w3.org/2000/svg">
<g clip-path="url(#clip0_120_177)">
<mask id="mask0_120_177" style="mask-type:alpha" maskUnits="userSpaceOnUse" x="0" y="0" width="45" height="45">
<path d="M22.5 45C34.9264 45 45 34.9264 45 22.5C45 10.0736 34.9264 0 22.5 0C10.0736 0 0 10.0736 0 22.5C0 34.9264 10.0736 45 22.5 45Z" fill="black"/>
</mask>
<g mask="url(#mask0_120_177)">
<path d="M22.5 45C34.9264 45 45 34.9264 45 22.5C45 10.0736 34.9264 0 22.5 0C10.0736 0 0 10.0736 0 22.5C0 34.9264 10.0736 45 22.5 45Z" fill="black"/>
<path d="M37.377 39.38L17.2855 13.5H13.5V31.4925H16.5284V17.3459L34.9997 41.2113C35.8332 40.6535 36.6272 40.0413 37.377 39.38Z" fill="url(#paint0_linear_120_177)"/>
<path d="M31.75 13.5H28.75V31.5H31.75V13.5Z" fill="url(#paint1_linear_120_177)"/>
</g>
</g>
<defs>
<linearGradient id="paint0_linear_120_177" x1="27.25" y1="29.125" x2="36.125" y2="40.125" gradientUnits="userSpaceOnUse">
<stop stop-color="white"/>
<stop offset="1" stop-color="white" stop-opacity="0"/>
</linearGradient>
<linearGradient id="paint1_linear_120_177" x1="30.25" y1="13.5" x2="30.1997" y2="26.7188" gradientUnits="userSpaceOnUse">
<stop stop-color="white"/>
<stop offset="1" stop-color="white" stop-opacity="0"/>
</linearGradient>
<clipPath id="clip0_120_177">
<rect width="45" height="45" rx="22.5" fill="white"/>
</clipPath>
</defs>
</svg>
